<?xml version="1.0" encoding="UTF-8" standalone="no"?>
<svg width="224.64" xmlns="http://www.w3.org/2000/svg" height="465.37">
 <g id="layer1">
  <path id="path2518" fill-rule="evenodd" stroke="#000" d="m73.761 103.19c-22.259-11.159-8.4674-32.617 1.2141-31.581 12.287-3.2039 29.587 13.788 15.249 26.382 3.5742 4.0074 1.2997 3.8991 1.2997 3.8991l-7.7982 8.6646s-6.6394 22.149-11.697 27.294c4.1324 6.064 4.1016 9.7444 4.3323 14.73 5.4385 3.2237 7.8485 11.185 7.8485 11.185l3.2864-0.2578s-0.3698-5.4381 0.50984-10.19c0.34348-6.7434 2.6257-8.4349 2.6257-8.4349s1.4028-2.2988 3.0589-3.5664c11.765-8.4676 24.179 5.7408 19.496 14.73-2.693 5.3896-5.5393 7.8314-6.0654 8.6648-5.351 3.9734-3.3915 11.824-3.3915 11.824 3.3082 0.25476 6.064-0.53375 7.9801 2.5996 1.8093 2.4576 5.9154 7.1309 7.1873 12.078 0 0 1.7377 7.5652 1.2209 15.088 6.0701 5.9919 10.345 18.069 10.345 18.069l12.183 27.42c3.8927 1.8238 6.4644 5.0129 10.219 4.6454 0.2608 1.7802 1.207 2.4358 4.2311 1.8007-4.7297 5.9142 3.0496 6.4656 4.1529 9.8136l-5.9403-3.2886 4.1814 5.0214-5.5818-3.1357 1.7353 6.8052-4.7655-7.3651c-4.0225-3.8878-8.4192-3.8484-12.059-11.754-9.1342-8.2239-17.199-16.274-19.823-31.143 0 0-7.9691-10.082-8.4089-16.889-4.0392-3.8199-4.4407-2.7075-7.365 0-2.9243 2.7081-4.3323 10.831-4.3323 10.831 2.8336 6.0756 2.5287 10.932 1.7329 15.596l-0.4332 8.2311c8.3884 8.2275 13.152 20.879 18.859 25.942 6.1484-5.1937 7.2595-4.1541 9.9646-3.4657 5.7365 2.027 7.3214 6.2284 8.868 10.45 9.4309-0.77997 11.889 3.51 17.329 5.6322l4.3324 0.433c4.7758-3.2849 8.7849-3.6149 12.13-1.3865 3.0157 3.0005 5.8566 6.1132 6.0652 10.918 4.9274 3.6858 7.5422 8.1116 7.365 13.43 0.53676 10.302-3.9855 11.459-8.2312 9.5309l-13.43-16.029c-1.8159-0.79572-2.5474-0.35297-5.6322-2.5996-1.6425-1.7601-1.1748-2.4643-1.2998-3.4657-5.8621 0.80975-12.156 0.61383-18.629 0-3.4062 2.0003-2.6766 5.0348-3.0326 7.7981-5.3126-0.37-10.014-2.3715-14.73-4.3324-12.23 3.308-23.894-0.26324-35.525-3.0326-0.95393 1.5563-1.906 3.1139-0.86641 6.0652 2.2566 3.5002 3.019 7.9691 3.2361 11.673 6.4839 3.1915 11.582 7.7696 16.03 12.997 6.3022-0.58282 11.367 1.4842 16.26 3.923-5.2398 16.44-6.8155 11.922-6.8362 14.142-0.73267 2.9495-1.3228 6.6608-3.5616 9.6856-3.3429 6.4382-8.7547 2.7403-9.0979 0.43304-0.97578-4.4834-0.87813-7.2801-0.43324-9.5309-2.6853-2.5565-4.1368-5.7298-5.1988-9.0978 1.9869-0.61017 1.9558-1.5873 1.733-2.5996-11.216-9.4691-26.206-13.83-39.424-21.661-2.3289-2.7566-3.7551-6.2963-3.0326-11.697-1.2997-0.026123-2.5994-0.35541-3.8991-2.5996 0.72101-2.121 1.6993-3.385 3.0326-3.4656-0.17961-5.0639-1.2876-9.4321 0-15.596-1.0139-1.1524-2.3416-1.9906-2.5994-3.8994-0.21439-3.3317 0.51172-4.9705 1.2997-6.4984-0.20291-1.7328 0.068741-3.4656-0.86644-5.1991 2.0084-3.0326 1.6256-6.0652 2.1661-9.0979 2.1888-0.25836 3.5775-1.5836 5.1988-2.5989 2.5253-26.683 7.1186-54.667 9.5311-77.115 0 0-7.7982-16.679-5.632-31.193 2.1661-14.513 14.297-26.86 14.297-26.86s-5.7403-4.549-2.1661-7.7982z"/>
 </g>
</svg>
