<?xml version="1.0" encoding="utf-8"?>
<!-- Generator: Adobe Illustrator 19.0.0, SVG Export Plug-In . SVG Version: 6.00 Build 0)  -->
<svg version="1.1" id="圖層_1" xmlns="http://www.w3.org/2000/svg" xmlns:xlink="http://www.w3.org/1999/xlink" x="0px" y="0px"
	 viewBox="0 0 1575 321" style="enable-background:new 0 0 1575 321;" xml:space="preserve">
<style type="text/css">
	._x005B_Por_x0020_defecto_x005D_{fill:#FFFFFF;stroke:#1D1D1B;stroke-miterlimit:10;}
	.st0{fill:#FFFFFF;}
	.st1{fill:#231815;}
	.st2{fill:url(#XMLID_3_);}
	.st3{fill:#040000;}
	.st4{opacity:0.4;fill:#F5E3C4;}
	.st5{font-family:'Garamond-Bold';}
	.st6{font-size:264px;}
	.st7{fill:none;stroke:#1D1D1B;stroke-miterlimit:10;}
</style>
<path id="XMLID_38_" class="st0" d="M118,28.4C76.3,28.4,9.5,49.3,9.5,49.3v178.6L118,312.8l108.5-84.8V49.3
	C226.5,49.3,159.7,28.4,118,28.4z"/>
<path id="XMLID_37_" class="st1" d="M117.4,37.3c-37.5,0-97.7,18.8-97.7,18.8v161.2l97.7,76.5l97.7-76.5V56.2
	C215.1,56.2,155,37.3,117.4,37.3z"/>
<path id="XMLID_36_" class="st0" d="M117.4,44.3C80.9,44.3,25,60.8,25,60.8v153.5l92.4,73l92.4-73V60.8
	C209.9,60.8,154,44.3,117.4,44.3z"/>
<polygon id="XMLID_35_" class="st1" points="117.4,249.8 119.2,255.4 125,255.4 120.3,258.8 122.1,264.4 117.4,260.9 112.7,264.4 
	114.5,258.8 109.8,255.4 115.6,255.4 "/>
<polygon id="XMLID_34_" class="st1" points="79,230.6 80.8,236.1 86.6,236.1 81.9,239.6 83.7,245.1 79,241.7 74.3,245.1 76.1,239.6 
	71.4,236.1 77.2,236.1 "/>
<linearGradient id="XMLID_3_" gradientUnits="userSpaceOnUse" x1="118.6302" y1="235.2864" x2="118.6302" y2="52.8582">
	<stop  offset="0" style="stop-color:#040000"/>
	<stop  offset="0.6072" style="stop-color:#033330"/>
	<stop  offset="1" style="stop-color:#09051D"/>
</linearGradient>
<path id="XMLID_33_" class="st2" d="M172.4,145.5c3.2,8.3-1.6,19-1.6,19c0.8-18.6-15.8-28.1-7.8-57.4c3.3-12-3.7-18.6-3.7-18.6
	c2,7.9-2.8,10.3-9.2,21c-6.4,10.7-3.1,21.8-3.1,21.8c-11.1-11.9-6.3-28.9-3-38.8c3.2-9.9-1.3-16.2-1.3-16.2c2,11.5-15,28.1-26.8,8.7
	c-11.7-19.4,3-32.1,3-32.1c-18.6,0.4-23,24.1-21.8,38c2,23-9.9,26.5-9.9,26.5c1.9-8-0.3-15.6-4.1-20.2c-3.7-4.5-8.7-5.9-8.7-5.9
	s11.2,13.9-5.5,44c-8.8,15.9,1.2,32.1,1.2,32.1c-7.9-5.9-14.3,0-14.3,0c10.7,7.5,3.2,26.9,15.8,44.4c7.4,10.1,15.5,15.8,23.9,19.2
	c-13.2-8.4-22-23.1-22-39.9c0-26.1,21.2-47.3,47.3-47.3s47.3,21.2,47.3,47.3c0,17.4-9.4,32.6-23.5,40.8
	c18.9-6.8,27.8-21.1,31.1-30.4C189.8,162.6,172.4,145.5,172.4,145.5z"/>
<ellipse id="XMLID_32_" class="st3" cx="117" cy="191.8" rx="46.3" ry="46.6"/>
<path id="XMLID_22_" class="st4" d="M159.3,219c0.1-0.2,0.3-0.4,0.4-0.6c4.9-7.7,7.8-16.8,7.8-26.6c0-14-5.9-26.7-15.2-35.6
	c-0.2-0.2-0.3-0.4-0.5-0.5c-8.7-8.1-20.4-13.1-33.3-13.1c-15.6,0-29.6,7.4-38.6,18.9c-0.2,0.2-0.3,0.3-0.4,0.5
	c-6.3,8.3-10,18.6-10,29.8c0,27.2,22,49.3,49,49.3c1.6,0,3.2-0.1,4.8-0.2c0.1,0,0.2,0,0.3,0c0.1,0,0.3,0,0.4,0
	c0.3-0.1,0.6-0.1,0.9-0.2C139.2,238.8,151.7,230.6,159.3,219z M160.8,205.4c-0.1-0.9-0.2-1.8-0.4-2.7c-0.9-4.8-2.9-11.9-7.8-18.9
	c1.9-1.8,3.8-2.8,5.4-2.8c1.3,0,2.7,0.6,4,1.9c0.6,2.9,0.9,5.9,0.9,9C162.9,196.5,162.1,201.1,160.8,205.4z M160.2,176.5
	c-0.7-0.2-1.4-0.3-2.2-0.3c0,0,0,0-0.1,0c-2.7,0-5.4,1.3-8.2,3.7c-1.6-1.8-3.4-3.7-5.5-5.5c3-5,5.3-9.4,6.9-12.8
	C155.1,166,158.2,171,160.2,176.5z M134.1,157.1c-1-2.7-2.9-6-6.2-8.9c7.5,1.6,14.2,5.1,19.8,10c-1.6,3.8-4,8.4-7,13.4
	c-1.7-1.2-3.6-2.4-5.7-3.5C135.7,165.3,135.6,161.3,134.1,157.1z M117.1,147.2c0,0,0.1,0,0.1,0.1c7.9,2.9,11.1,7.9,12.5,11.5
	c1.1,2.9,1.2,5.5,0.9,7.3c-10.4-4.5-24.5-7.2-43.6-5.8C94.8,152.5,105.4,147.6,117.1,147.2z M82.7,165.4c20.6-2.2,35.4,0.4,46,5
	c-3.6,5-10.4,8.9-28.4,13.1c-13,3-21.6,6.6-26.2,10.7c0-0.8-0.1-1.5-0.1-2.3C74.1,181.9,77.3,172.8,82.7,165.4z M75,201
	c0.4-2.3,3.8-7.9,26.3-13.1c15.7-3.6,26.1-7.5,31.6-15.6c1.9,1,3.6,2.1,5.2,3.3c-10.6,16.5-27.7,36.5-49,49.7
	C82.1,219.1,77,210.6,75,201z M93,228.4c22.4-14.3,38.7-34.3,48.8-49.9c1.9,1.6,3.4,3.3,4.8,5c-3.6,5.2-5.5,13.6-7.4,22.5
	c-0.7,3-1.3,6-2.1,8.8c-3.5,13.4-7.4,19.9-13.2,21.3c-1.8,0.2-3.7,0.4-5.5,0.4C109,236.5,100.2,233.5,93,228.4z M134.7,233.4
	c3.3-4.8,5.3-11.2,6.9-17.4c0.7-2.9,1.4-6,2.1-9c1.6-7.3,3.3-14.8,5.8-19.4c7.4,11.5,7.7,23.9,6,28.8
	C150.6,224,143.3,230,134.7,233.4z"/>
<path id="XMLID_12_" class="st0" d="M159.3,219c0.1-0.2,0.3-0.4,0.4-0.6c4.9-7.7,7.8-16.8,7.8-26.6c0-14-5.9-26.7-15.2-35.6
	c-0.2-0.2-0.3-0.4-0.5-0.5c-8.7-8.1-20.4-13.1-33.3-13.1c-15.6,0-29.6,7.4-38.6,18.9c-0.2,0.2-0.3,0.3-0.4,0.5
	c-6.3,8.3-10,18.6-10,29.8c0,27.2,22,49.3,49,49.3c1.6,0,3.2-0.1,4.8-0.2c0.1,0,1.3-0.1,1.6-0.2C139.2,238.8,151.7,230.6,159.3,219z
	 M160.8,205.4c-0.1-0.9-0.2-1.8-0.4-2.7c-0.9-4.8-2.9-11.9-7.8-18.9c1.9-1.8,3.8-2.8,5.4-2.8c1.3,0,2.7,0.6,4,1.9
	c0.6,2.9,0.9,5.9,0.9,9C162.9,196.5,162.1,201.1,160.8,205.4z M160.2,176.5c-0.7-0.2-1.4-0.3-2.2-0.3c0,0,0,0-0.1,0
	c-2.7,0-5.4,1.3-8.2,3.7c-1.6-1.8-3.4-3.7-5.5-5.5c3-5,5.3-9.4,6.9-12.8C155.1,166,158.2,171,160.2,176.5z M134.1,157.1
	c-1-2.7-2.9-6-6.2-8.9c7.5,1.6,14.2,5.1,19.8,10c-1.6,3.8-4,8.4-7,13.4c-1.7-1.2-3.6-2.4-5.7-3.5
	C135.7,165.3,135.6,161.3,134.1,157.1z M117.1,147.2c0,0,0.1,0,0.1,0.1c7.9,2.9,11.1,7.9,12.5,11.5c1.1,2.9,1.2,5.5,0.9,7.3
	c-10.4-4.5-24.5-7.2-43.6-5.8C94.8,152.5,105.4,147.6,117.1,147.2z M82.7,165.4c20.6-2.2,35.4,0.4,46,5c-3.6,5-10.4,8.9-28.4,13.1
	c-13,3-21.6,6.6-26.2,10.7c0-0.8-0.1-1.5-0.1-2.3C74.1,181.9,77.3,172.8,82.7,165.4z M75,201c0.4-2.3,3.8-7.9,26.3-13.1
	c15.7-3.6,26.1-7.5,31.6-15.6c1.9,1,3.6,2.1,5.2,3.3c-10.6,16.5-27.7,36.5-49,49.7C82.1,219.1,77,210.6,75,201z M93,228.4
	c22.4-14.3,38.7-34.3,48.8-49.9c1.9,1.6,3.4,3.3,4.8,5c-3.6,5.2-5.5,13.6-7.4,22.5c-0.7,3-1.3,6-2.1,8.8
	c-3.5,13.4-7.4,19.9-13.2,21.3c-1.8,0.2-3.7,0.4-5.5,0.4C109,236.5,100.2,233.5,93,228.4z M134.7,233.4c3.3-4.8,5.3-11.2,6.9-17.4
	c0.7-2.9,1.4-6,2.1-9c1.6-7.3,3.3-14.8,5.8-19.4c7.4,11.5,7.7,23.9,6,28.8C150.6,224,143.3,230,134.7,233.4z"/>
<polygon id="XMLID_11_" class="st1" points="44.6,198.9 46.4,204.4 52.2,204.4 47.5,207.9 49.3,213.4 44.6,210 39.9,213.4 
	41.7,207.9 37,204.4 42.8,204.4 "/>
<polygon id="XMLID_10_" class="st1" points="157.3,230.6 159.1,236.1 164.9,236.1 160.2,239.6 162,245.1 157.3,241.7 152.6,245.1 
	154.4,239.6 149.7,236.1 155.5,236.1 "/>
<polygon id="XMLID_9_" class="st1" points="194.9,198.9 196.7,204.4 202.5,204.4 197.8,207.9 199.6,213.4 194.9,210 190.2,213.4 
	192,207.9 187.3,204.4 193.1,204.4 "/>
<g id="XMLID_2_">
	<text id="XMLID_40_" transform="matrix(1 0 0 1 252.5336 245.1189)" class="st0 st5 st6">PACUEMO</text>
	<text id="XMLID_8_" transform="matrix(1 0 0 1 252.5336 245.1189)" class="st7 st5 st6">PACUEMO</text>
</g>
</svg>
