<?xml version="1.0" encoding="UTF-8" standalone="no"?>
<svg width="800" xmlns="http://www.w3.org/2000/svg" height="800">
 <defs>
  <marker id="se_marker_start_path3519" refY="50" refX="50" se_type="leftarrow" orient="auto" markerUnits="strokeWidth" markerWidth="5" viewBox="0 0 100 100" markerHeight="5">
   <path stroke-width="10" d="m0 50l100 40-30-40 30-40z" stroke="#000"/>
  </marker>
 </defs>
 <path id="path3519" marker-start="url(#se_marker_start_path3519)" stroke="#000" d="m487.38 145c-5.849 0-11.258 1.74-15.687 4.656-0.041992 0.02301-0.083984 0.040009-0.125 0.062012-2.158 1.198-4.135 2.835-5.688 5.125-3.51 4.231-5.625 9.534-5.625 15.281 0 4.545 1.311 8.792 3.594 12.469 1.369 4.846 2.594 9.437 2.594 9.437s3.825 8.885 0.65601 12.688-4.442 6.965-1.906 9.5l5.062 5.062s3.156 17.769 3.156 25.375-4.437 32.305-4.437 37.375c0 5.071-2.522 17.765-3.156 23.469s-1.277 10.139-3.813 15.844c-2.535 5.704-7.594 15.84-7.594 18.375s-5.062 3.156-5.062 3.156-1.901-5.683 0-8.219c1.901-2.535 3.799-4.433 2.531-6.968-1.267-2.536-4.437-11.407-4.437-11.407v-4.437l-3.813-2.563-5.687-6.968s-6.368-3.808-15.875-1.907c-9.508 1.902-20.907 10.148-20.907 15.219s1.282 15.844 1.282 15.844-6.358-5.7-7.625 1.906c-1.268 7.606-4.437 10.777 0 13.313 4.436 2.535 7.612 4.432 10.781 2.531 3.169-1.902 6.344-6.969 6.344-6.969l8.25 4.438-1.907 5.718s-26.638 10.755-27.906 12.657c-1.267 1.901-10.777 13.303-13.312 13.937-2.536 0.63403-41.805 13.331-46.875 16.5-5.0708 3.169-29.176 16.478-36.782 15.844-7.6058-0.63397-21.532-6.986-25.969-1.281-4.4367 5.704-3.1692 11.433 0 13.968 3.1691 2.536 8.2195 5.674 12.656 4.407 4.4368-1.268 3.8125-5.063 3.8125-5.063s6.9832 1.919 12.688-1.25c5.7044-3.169 49.433-8.246 51.969-10.781 2.535-2.535 22.187-12.031 22.187-12.031s25.97-9.519 30.406-12.688c4.437-3.169 6.354-0.013 10.157 3.156s15.843 25.363 15.843 32.969-1.29 15.853-5.093 19.656-28.496 11.385-31.032 15.188c-2.535 3.803-15.218 26-15.218 26s-0.633 0.643 4.437 3.812c5.071 3.169 4.438 5.688 4.438 5.688s-15.211 24.094-20.282 28.531c-5.07 4.437-44.37 28.514-46.906 34.219-2.5353 5.704-14.594 21.562-14.594 21.562l-16.469 13.938s-10.144 5.692-13.313 7.594c-3.1691 1.901-11.406 3.183-11.406 5.718 0 2.536 17.121 20.907 19.656 20.907 2.5353 0 10.139-10.135 11.406-13.938 1.2677-3.803 14.582-21.558 22.188-24.094 7.6059-2.535 32.956-22.174 36.125-25.343 3.169-3.17 1.913-5.706 12.687-8.875 10.775-3.17 31.688-21.563 31.688-21.563s42.46-24.697 43.094-28.5 6.343 1.899 6.343 11.406c0 9.508-2.544 48.175-3.812 51.344s-3.183 5.702-1.281 11.406c1.901 5.705 1.271 3.788-2.532 14.563-3.802 10.775-2.531 43.75-2.531 43.75s-0.009003 12.674-3.812 15.844c-3.803 3.169-8.871 0.64404-11.407 8.25-2.535 7.605-1.905 7.596 2.532 20.902 4.436 13.31 5.099 24.08 11.437 27.88s12.661 4.4401 14.563-2.5299c1.901-6.97-9.499-27.883-5.063-34.221 4.437-6.338 5.063-10.792 5.063-19.031 0-8.24 12.67-41.805 13.937-46.875 1.268-5.071-1.888-15.23 1.281-23.469 3.17-8.24 17.117-41.818 17.75-48.156 0.63397-6.339 6.344-49.439 6.344-58.313 0-8.873-1.906-58.943-1.906-65.281s-2.558-41.832-5.094-49.438c-2.535-7.606-4.41-13.943-1.875-20.281s8.87-24.109 6.969-34.25c-1.902-10.141 3.794-34.224 0.625-40.562-3.169-6.339-3.165-47.528-2.531-50.063s1.259-11.416 5.062-15.219 12.666-7.603 16.469-11.406c0.32999-0.32999 0.664-0.772 1-1.25 5.175-4.571 8.406-10.981 8.406-18.125 0-9.609-5.838-17.97-14.406-22.187-0.172-0.22601-0.68802-0.90701-0.68802-0.90701s-2.25-0.676-5.25-1.218c-0.10199-0.024017-0.20898-0.039001-0.31198-0.062012-0.10901-0.019012-0.20102-0.044006-0.31302-0.062012-1.978-0.42499-4.038-0.68799-6.156-0.68799z"/>
</svg>
